<svg width="40" height="40" fill="none" xmlns="http://www.w3.org/2000/svg"><g opacity=".5" fill="#48494D"><path d="M34.09 17.31a.67.67 0 0 1-.48-.2l-6.8-6.8a.67.67 0 0 1 .95-.94l6.8 6.8a.67.67 0 0 1-.47 1.14M32.47 18.92a.67.67 0 0 1-.47-.2l-6.8-6.8a.67.67 0 1 1 .95-.94l6.8 6.8a.67.67 0 0 1-.48 1.14M30.93 20.47a.67.67 0 0 1-.48-.2l-6.8-6.8a.67.67 0 0 1 .95-.95l6.8 6.8a.67.67 0 0 1-.47 1.15"/><path d="M22.55 18.26a.67.67 0 0 1-.47-1.15l2.87-2.88a.67.67 0 0 1 .95.95l-2.88 2.88c-.13.13-.3.2-.47.2M26.34 22.05a.67.67 0 0 1-.47-1.15l2.87-2.87a.67.67 0 0 1 .95.95l-2.87 2.87c-.14.14-.3.2-.48.2M32.17 13.63a1.33 1.33 0 1 1-1.88-1.87 1.33 1.33 0 0 1 1.88 1.87ZM5.91 17.3a.67.67 0 0 1-.47-1.14l6.8-6.8a.67.67 0 0 1 .95.95l-6.8 6.8c-.13.13-.3.2-.48.2M7.53 18.92a.67.67 0 0 1-.48-1.15l6.8-6.8a.67.67 0 0 1 .95.95L8 18.72c-.13.13-.3.2-.47.2M9.07 20.46a.67.67 0 0 1-.47-1.14l6.8-6.8a.67.67 0 0 1 .95.95l-6.8 6.8c-.13.13-.3.2-.48.2"/><path d="M13.66 22.04a.67.67 0 0 1-.48-.2l-2.87-2.87a.67.67 0 1 1 .94-.95l2.88 2.88a.67.67 0 0 1-.47 1.14M17.45 18.25a.67.67 0 0 1-.47-.2l-2.88-2.88a.67.67 0 1 1 .95-.94l2.88 2.87a.67.67 0 0 1-.48 1.15M9.7 11.75a1.33 1.33 0 1 1-1.87 1.88 1.33 1.33 0 0 1 1.88-1.88Z"/><path d="M20 31.42a7.5 7.5 0 1 1 .03-14.99A7.5 7.5 0 0 1 20 31.42Zm0-13.65a6.16 6.16 0 1 0 .02 12.3 6.16 6.16 0 0 0-.02-12.3Zm4.83 10.98Z"/><path d="M12.09 26.54h-1.27c-.93 0-1.68-.75-1.68-1.68v-1.9c0-.92.75-1.67 1.68-1.67h1.27c.93 0 1.68.75 1.68 1.68v1.9c0 .92-.75 1.67-1.68 1.67Zm-1.27-3.91a.34.34 0 0 0-.34.34v1.9c0 .18.16.33.34.33h1.27c.18 0 .34-.15.34-.34v-1.9a.34.34 0 0 0-.34-.33h-1.27Z"/></g></svg>