<svg width="55" height="55" fill="none" xmlns="http://www.w3.org/2000/svg"><path d="m42.15 27.27-6.78-.55a1.83 1.83 0 0 1-1.04-3.22l5.16-4.43a14.7 14.7 0 0 0-7.68-5.6l-2.62 6.3a1.83 1.83 0 0 1-3.38 0l-2.62-6.29c-3.1.97-5.8 2.93-7.68 5.6l5.17 4.43a1.83 1.83 0 0 1-1.05 3.21l-6.78.55-.01.24c0 3.17 1.03 6.26 2.95 8.8l5.8-3.54a1.83 1.83 0 0 1 2.74 1.99l-1.58 6.61a14.48 14.48 0 0 0 9.5 0l-1.57-6.61a1.83 1.83 0 0 1 2.73-2l5.8 3.54a14.57 14.57 0 0 0 2.96-8.8l-.02-.23ZM27.5 30.25a2.75 2.75 0 1 1 0-5.5 2.75 2.75 0 0 1 0 5.5Z" fill="#D12136"/><path d="M27.5.92a26.58 26.58 0 1 0 0 53.16 26.58 26.58 0 0 0 0-53.16Zm0 41.25a14.67 14.67 0 1 1 0-29.34 14.67 14.67 0 0 1 0 29.34Z" fill="#2B2733"/><path d="M44.87 7.38A26.58 26.58 0 0 1 7.38 44.87 26.58 26.58 0 1 0 44.87 7.38Z" fill="#1A1721"/><path d="m19.26 5.12 1.75-.57-.85-2.62-1.75.57.85 2.62Z" fill="#555160"/><path d="m34.84 53.06 1.75-.56-.85-2.62-1.75.57.85 2.61Z" fill="#3B3944"/><path d="M28.42.92h-1.84v2.75h1.84V.92Z" fill="#555160"/><path d="M28.42 51.33h-1.84v2.75h1.84v-2.75Z" fill="#3B3944"/><path d="m12.75 8.76 1.48-1.08-1.61-2.22-1.49 1.07 1.62 2.23Z" fill="#555160"/><path d="m42.38 49.54 1.48-1.07-1.61-2.23-1.48 1.08 1.61 2.22Z" fill="#3B3944"/><path d="m7.68 14.23 1.08-1.48-2.23-1.62-1.08 1.49 2.23 1.61Z" fill="#555160"/><path d="m48.47 43.87 1.08-1.49-2.23-1.61-1.08 1.48 2.23 1.62Z" fill="#3B3944"/><path d="m4.55 21 .56-1.74-2.61-.85-.57 1.75 2.62.85Z" fill="#555160"/><path d="m52.5 36.6.57-1.75-2.62-.85-.57 1.74 2.62.85Z" fill="#3B3944"/><path d="M3.67 26.58H.92v1.84h2.75v-1.84Z" fill="#555160"/><path d="M54.08 26.58h-2.75v1.84h2.75v-1.84Z" fill="#3B3944"/><path d="m2.5 36.59 2.62-.85-.57-1.75-2.61.85.56 1.75ZM6.53 43.87l2.22-1.62-1.07-1.48-2.23 1.61 1.08 1.48ZM42.25 8.76l1.62-2.23-1.49-1.08-1.61 2.23 1.48 1.08ZM35.74 5.12l.85-2.62-1.74-.57L34 4.55l1.74.57Z" fill="#555160"/><path d="m53.07 20.16-.57-1.74-1.8.58c.13.6.25 1.2.34 1.82l2.03-.66ZM49.55 12.62l-1.08-1.49-.63.46c.3.54.6 1.08.87 1.64l.84-.61ZM11.13 48.47l1.49 1.08.6-.84a26.4 26.4 0 0 1-1.63-.87l-.46.63ZM18.41 52.5l1.74.57.66-2.03c-.61-.09-1.22-.2-1.82-.34l-.58 1.8Z" fill="#3B3944"/><path d="m50.45 21 .6-.19c-.1-.6-.22-1.21-.35-1.81l-.82.26.57 1.75ZM47.32 14.23l1.4-1a26.4 26.4 0 0 0-.88-1.64l-1.6 1.16 1.08 1.48ZM12.75 46.24l-1.16 1.6c.53.3 1.07.6 1.63.87l1.01-1.39-1.48-1.08ZM19.26 49.88l-.26.82c.6.13 1.2.25 1.81.34l.2-.59-1.75-.57ZM27.5 8.25a19.25 19.25 0 1 0 0 38.5 19.25 19.25 0 0 0 0-38.5Zm0 33.92a14.67 14.67 0 1 1 0-29.34 14.67 14.67 0 0 1 0 29.34Z" fill="#555160"/><path d="M40.63 13.45a19.23 19.23 0 0 1-27.18 27.18 19.23 19.23 0 1 0 27.18-27.18Z" fill="#3B3944"/><path d="M35.84 15.46a14.62 14.62 0 0 0-4.03-1.98l-.5 1.21c1.53.08 3.05.34 4.53.77ZM24.08 15.63l-.89-2.15c-3.1.97-5.8 2.93-7.68 5.6l1.08.92a20.14 20.14 0 0 1 7.5-4.37Z" fill="#9C1928"/><path d="M27.5 7.33a20.17 20.17 0 1 0 0 40.34 20.17 20.17 0 0 0 0-40.34Zm0 38.5a18.33 18.33 0 1 1 0-36.66 18.33 18.33 0 0 1 0 36.66Z" fill="#000"/><path d="M27.5 11.92a15.58 15.58 0 1 0 0 31.16 15.58 15.58 0 0 0 0-31.16Zm13.69 14.35-5.74-.46a.92.92 0 0 1-.53-1.61l4.37-3.74a13.63 13.63 0 0 1 1.9 5.81ZM30.56 14.11l-2.21 5.31a.92.92 0 0 1-1.7 0l-2.21-5.31c2.01-.48 4.1-.48 6.12 0Zm-14.85 6.35 4.36 3.74a.92.92 0 0 1-.52 1.61l-5.74.46c.19-2.06.84-4.04 1.9-5.81Zm1.45 16.07 4.9-2.99a.92.92 0 0 1 1.37 1l-1.33 5.6a13.81 13.81 0 0 1-4.94-3.6Zm6.68 4.21 1.37-5.78a2.75 2.75 0 0 0-4.1-2.98l-5.08 3.1a13.66 13.66 0 0 1-2.25-6.97l5.92-.48a2.75 2.75 0 0 0 1.57-4.82l-4.51-3.87a13.8 13.8 0 0 1 5.91-4.3l2.29 5.48a2.75 2.75 0 0 0 5.08 0l2.28-5.48a13.8 13.8 0 0 1 5.92 4.3l-4.5 3.87a2.75 2.75 0 0 0 1.56 4.82l5.92.48c-.1 2.48-.88 4.89-2.25 6.96l-5.08-3.1a2.75 2.75 0 0 0-4.1 2.99l1.37 5.78c-2.4.68-4.93.68-7.32 0Zm9.06-.6-1.34-5.6a.92.92 0 0 1 1.37-1l4.9 3a13.8 13.8 0 0 1-4.93 3.6Z" fill="#000"/><path d="M31.17 27.5a3.67 3.67 0 1 0-7.34 0 3.67 3.67 0 0 0 7.34 0Zm-3.67 1.83a1.83 1.83 0 1 1 0-3.66 1.83 1.83 0 0 1 0 3.66Z" fill="#000"/><path d="M27.5 55a27.5 27.5 0 1 1 0-55 27.5 27.5 0 0 1 0 55Zm0-53.17a25.67 25.67 0 1 0 0 51.34 25.67 25.67 0 0 0 0-51.34Z" fill="#000"/></svg>