<svg width="40" height="40" fill="none" xmlns="http://www.w3.org/2000/svg"><g opacity=".5" stroke="#48494D" stroke-width="1.5"><path d="M11.2 20h17.6"/><path d="M11.2 20h17.6" stroke-miterlimit="10" stroke-linecap="round" stroke-linejoin="round"/><path d="M20 14.53v10.94"/><path d="M20 14.53v10.94" stroke-miterlimit="10" stroke-linecap="round" stroke-linejoin="round"/><path d="M28.8 14.53V20"/><path d="M28.8 14.53V20" stroke-miterlimit="10" stroke-linecap="round" stroke-linejoin="round"/><path d="M11.2 14.53v10.94"/><path d="M11.2 14.53v10.94M11.2 14.53a2.69 2.69 0 1 0 0-5.37 2.69 2.69 0 0 0 0 5.37ZM20 14.53a2.69 2.69 0 1 0 0-5.37 2.69 2.69 0 0 0 0 5.37ZM28.8 14.53a2.69 2.69 0 1 0 0-5.37 2.69 2.69 0 0 0 0 5.37ZM11.2 30.84a2.69 2.69 0 1 0 0-5.37 2.69 2.69 0 0 0 0 5.37ZM20 30.84a2.69 2.69 0 1 0 0-5.37 2.69 2.69 0 0 0 0 5.37Z" stroke-miterlimit="10" stroke-linecap="round" stroke-linejoin="round"/></g></svg>